<mxfile host="app.diagrams.net" agent="Mozilla/5.0 (Windows NT 10.0; Win64; x64; rv:141.0) Gecko/20100101 Firefox/141.0" version="28.1.0">
  <diagram name="Page-1" id="zYVnt6KPceBAITwr_Y2t">
    <mxGraphModel dx="1042" dy="535" grid="1" gridSize="10" guides="1" tooltips="1" connect="1" arrows="1" fold="1" page="1" pageScale="1" pageWidth="850" pageHeight="1100" math="0" shadow="0">
      <root>
        <mxCell id="0" />
        <mxCell id="1" parent="0" />
        <mxCell id="dPG3s_r1Ieh7JRKwjJLs-1" value="Home" style="rounded=0;whiteSpace=wrap;html=1;" vertex="1" parent="1">
          <mxGeometry x="20" y="431" width="120" height="60" as="geometry" />
        </mxCell>
        <mxCell id="dPG3s_r1Ieh7JRKwjJLs-2" value="" style="endArrow=classic;html=1;rounded=0;exitX=1;exitY=0.5;exitDx=0;exitDy=0;entryX=0;entryY=0.5;entryDx=0;entryDy=0;" edge="1" parent="1" source="dPG3s_r1Ieh7JRKwjJLs-1" target="dPG3s_r1Ieh7JRKwjJLs-3">
          <mxGeometry width="50" height="50" relative="1" as="geometry">
            <mxPoint x="170" y="480" as="sourcePoint" />
            <mxPoint x="220" y="430" as="targetPoint" />
          </mxGeometry>
        </mxCell>
        <mxCell id="dPG3s_r1Ieh7JRKwjJLs-3" value="Intake" style="rounded=0;whiteSpace=wrap;html=1;" vertex="1" parent="1">
          <mxGeometry x="199" y="430" width="120" height="60" as="geometry" />
        </mxCell>
        <mxCell id="dPG3s_r1Ieh7JRKwjJLs-24" style="edgeStyle=orthogonalEdgeStyle;rounded=0;orthogonalLoop=1;jettySize=auto;html=1;exitX=1;exitY=0.5;exitDx=0;exitDy=0;entryX=0;entryY=0.5;entryDx=0;entryDy=0;" edge="1" parent="1" source="dPG3s_r1Ieh7JRKwjJLs-4" target="dPG3s_r1Ieh7JRKwjJLs-19">
          <mxGeometry relative="1" as="geometry" />
        </mxCell>
        <mxCell id="dPG3s_r1Ieh7JRKwjJLs-4" value="Amp" style="rounded=0;whiteSpace=wrap;html=1;" vertex="1" parent="1">
          <mxGeometry x="380" y="160" width="120" height="60" as="geometry" />
        </mxCell>
        <mxCell id="dPG3s_r1Ieh7JRKwjJLs-27" style="edgeStyle=orthogonalEdgeStyle;rounded=0;orthogonalLoop=1;jettySize=auto;html=1;exitX=1;exitY=0.5;exitDx=0;exitDy=0;entryX=0;entryY=0.5;entryDx=0;entryDy=0;" edge="1" parent="1" source="dPG3s_r1Ieh7JRKwjJLs-5" target="dPG3s_r1Ieh7JRKwjJLs-23">
          <mxGeometry relative="1" as="geometry" />
        </mxCell>
        <mxCell id="dPG3s_r1Ieh7JRKwjJLs-5" value="Subwoofer" style="rounded=0;whiteSpace=wrap;html=1;" vertex="1" parent="1">
          <mxGeometry x="380" y="430" width="120" height="60" as="geometry" />
        </mxCell>
        <mxCell id="dPG3s_r1Ieh7JRKwjJLs-7" value="" style="endArrow=classic;html=1;rounded=0;exitX=1;exitY=0.5;exitDx=0;exitDy=0;entryX=0;entryY=0.5;entryDx=0;entryDy=0;" edge="1" parent="1" source="dPG3s_r1Ieh7JRKwjJLs-3" target="dPG3s_r1Ieh7JRKwjJLs-5">
          <mxGeometry width="50" height="50" relative="1" as="geometry">
            <mxPoint x="340" y="560" as="sourcePoint" />
            <mxPoint x="390" y="510" as="targetPoint" />
          </mxGeometry>
        </mxCell>
        <mxCell id="dPG3s_r1Ieh7JRKwjJLs-9" value="" style="endArrow=classic;html=1;rounded=0;exitX=0;exitY=0.25;exitDx=0;exitDy=0;entryX=0;entryY=0.5;entryDx=0;entryDy=0;" edge="1" parent="1" source="dPG3s_r1Ieh7JRKwjJLs-5" target="dPG3s_r1Ieh7JRKwjJLs-4">
          <mxGeometry width="50" height="50" relative="1" as="geometry">
            <mxPoint x="450" y="300" as="sourcePoint" />
            <mxPoint x="500" y="250" as="targetPoint" />
            <Array as="points">
              <mxPoint x="310" y="190" />
            </Array>
          </mxGeometry>
        </mxCell>
        <mxCell id="dPG3s_r1Ieh7JRKwjJLs-25" style="edgeStyle=orthogonalEdgeStyle;rounded=0;orthogonalLoop=1;jettySize=auto;html=1;exitX=1;exitY=0.5;exitDx=0;exitDy=0;entryX=0;entryY=0.5;entryDx=0;entryDy=0;" edge="1" parent="1" source="dPG3s_r1Ieh7JRKwjJLs-10" target="dPG3s_r1Ieh7JRKwjJLs-20">
          <mxGeometry relative="1" as="geometry" />
        </mxCell>
        <mxCell id="dPG3s_r1Ieh7JRKwjJLs-10" value="&lt;div&gt;Mid-High&lt;/div&gt;" style="rounded=0;whiteSpace=wrap;html=1;" vertex="1" parent="1">
          <mxGeometry x="380" y="250" width="120" height="60" as="geometry" />
        </mxCell>
        <mxCell id="dPG3s_r1Ieh7JRKwjJLs-26" style="edgeStyle=orthogonalEdgeStyle;rounded=0;orthogonalLoop=1;jettySize=auto;html=1;exitX=1;exitY=0.5;exitDx=0;exitDy=0;entryX=0;entryY=0.5;entryDx=0;entryDy=0;" edge="1" parent="1" source="dPG3s_r1Ieh7JRKwjJLs-12" target="dPG3s_r1Ieh7JRKwjJLs-22">
          <mxGeometry relative="1" as="geometry" />
        </mxCell>
        <mxCell id="dPG3s_r1Ieh7JRKwjJLs-12" value="Mid-Low" style="rounded=0;whiteSpace=wrap;html=1;" vertex="1" parent="1">
          <mxGeometry x="380" y="340" width="120" height="60" as="geometry" />
        </mxCell>
        <mxCell id="dPG3s_r1Ieh7JRKwjJLs-13" value="" style="endArrow=classic;html=1;rounded=0;entryX=0;entryY=0.5;entryDx=0;entryDy=0;" edge="1" parent="1" target="dPG3s_r1Ieh7JRKwjJLs-10">
          <mxGeometry width="50" height="50" relative="1" as="geometry">
            <mxPoint x="380" y="440" as="sourcePoint" />
            <mxPoint x="360" y="250" as="targetPoint" />
            <Array as="points">
              <mxPoint x="340" y="290" />
            </Array>
          </mxGeometry>
        </mxCell>
        <mxCell id="dPG3s_r1Ieh7JRKwjJLs-14" value="" style="endArrow=classic;html=1;rounded=0;exitX=0;exitY=0.25;exitDx=0;exitDy=0;entryX=0;entryY=0.5;entryDx=0;entryDy=0;" edge="1" parent="1" source="dPG3s_r1Ieh7JRKwjJLs-5" target="dPG3s_r1Ieh7JRKwjJLs-12">
          <mxGeometry width="50" height="50" relative="1" as="geometry">
            <mxPoint x="260" y="290" as="sourcePoint" />
            <mxPoint x="310" y="240" as="targetPoint" />
            <Array as="points">
              <mxPoint x="360" y="380" />
            </Array>
          </mxGeometry>
        </mxCell>
        <mxCell id="dPG3s_r1Ieh7JRKwjJLs-28" style="edgeStyle=orthogonalEdgeStyle;rounded=0;orthogonalLoop=1;jettySize=auto;html=1;exitX=1;exitY=0.5;exitDx=0;exitDy=0;entryX=0.5;entryY=1;entryDx=0;entryDy=0;" edge="1" parent="1" source="dPG3s_r1Ieh7JRKwjJLs-19" target="dPG3s_r1Ieh7JRKwjJLs-1">
          <mxGeometry relative="1" as="geometry">
            <mxPoint x="70" y="560" as="targetPoint" />
            <Array as="points">
              <mxPoint x="801" y="190" />
              <mxPoint x="801" y="560" />
              <mxPoint x="80" y="560" />
            </Array>
          </mxGeometry>
        </mxCell>
        <mxCell id="dPG3s_r1Ieh7JRKwjJLs-19" value="&lt;div&gt;Shoot Amp&lt;/div&gt;" style="rounded=0;whiteSpace=wrap;html=1;" vertex="1" parent="1">
          <mxGeometry x="550" y="160" width="120" height="60" as="geometry" />
        </mxCell>
        <mxCell id="dPG3s_r1Ieh7JRKwjJLs-29" style="edgeStyle=orthogonalEdgeStyle;rounded=0;orthogonalLoop=1;jettySize=auto;html=1;exitX=1;exitY=0.5;exitDx=0;exitDy=0;entryX=0.5;entryY=1;entryDx=0;entryDy=0;" edge="1" parent="1" source="dPG3s_r1Ieh7JRKwjJLs-20" target="dPG3s_r1Ieh7JRKwjJLs-1">
          <mxGeometry relative="1" as="geometry">
            <mxPoint x="80" y="560" as="targetPoint" />
            <Array as="points">
              <mxPoint x="801" y="280" />
              <mxPoint x="801" y="560" />
              <mxPoint x="80" y="560" />
            </Array>
          </mxGeometry>
        </mxCell>
        <mxCell id="dPG3s_r1Ieh7JRKwjJLs-20" value="&lt;div&gt;Shoot Mid-High&lt;/div&gt;" style="rounded=0;whiteSpace=wrap;html=1;" vertex="1" parent="1">
          <mxGeometry x="550" y="250" width="120" height="60" as="geometry" />
        </mxCell>
        <mxCell id="dPG3s_r1Ieh7JRKwjJLs-30" style="edgeStyle=orthogonalEdgeStyle;rounded=0;orthogonalLoop=1;jettySize=auto;html=1;exitX=1;exitY=0.5;exitDx=0;exitDy=0;entryX=0.5;entryY=1;entryDx=0;entryDy=0;" edge="1" parent="1" source="dPG3s_r1Ieh7JRKwjJLs-22" target="dPG3s_r1Ieh7JRKwjJLs-1">
          <mxGeometry relative="1" as="geometry">
            <mxPoint x="80" y="500" as="targetPoint" />
            <Array as="points">
              <mxPoint x="801" y="370" />
              <mxPoint x="801" y="560" />
              <mxPoint x="80" y="560" />
            </Array>
          </mxGeometry>
        </mxCell>
        <mxCell id="dPG3s_r1Ieh7JRKwjJLs-22" value="&lt;div&gt;Shoot Mid-Low&lt;/div&gt;" style="rounded=0;whiteSpace=wrap;html=1;" vertex="1" parent="1">
          <mxGeometry x="550" y="340" width="120" height="60" as="geometry" />
        </mxCell>
        <mxCell id="dPG3s_r1Ieh7JRKwjJLs-31" style="edgeStyle=orthogonalEdgeStyle;rounded=0;orthogonalLoop=1;jettySize=auto;html=1;entryX=0.5;entryY=1;entryDx=0;entryDy=0;" edge="1" parent="1" source="dPG3s_r1Ieh7JRKwjJLs-23" target="dPG3s_r1Ieh7JRKwjJLs-1">
          <mxGeometry relative="1" as="geometry">
            <mxPoint x="80" y="560" as="targetPoint" />
            <Array as="points">
              <mxPoint x="801" y="460" />
              <mxPoint x="801" y="560" />
              <mxPoint x="80" y="560" />
            </Array>
          </mxGeometry>
        </mxCell>
        <mxCell id="dPG3s_r1Ieh7JRKwjJLs-23" value="&lt;div&gt;Shoot Subwoofer&lt;/div&gt;" style="rounded=0;whiteSpace=wrap;html=1;" vertex="1" parent="1">
          <mxGeometry x="550" y="430" width="120" height="60" as="geometry" />
        </mxCell>
      </root>
    </mxGraphModel>
  </diagram>
</mxfile>
